<?xml version="1.0" encoding="iso-8859-1"?>
<!-- Generator: Adobe Illustrator 16.0.0, SVG Export Plug-In . SVG Version: 6.00 Build 0)  -->
<!DOCTYPE svg PUBLIC "-//W3C//DTD SVG 1.1//EN" "http://www.w3.org/Graphics/SVG/1.1/DTD/svg11.dtd">
<svg version="1.1" id="Capa_1" xmlns="http://www.w3.org/2000/svg" xmlns:xlink="http://www.w3.org/1999/xlink" x="0px" y="0px"
	 width="611.995px" height="611.996px" viewBox="0 0 611.995 611.996" style="enable-background:new 0 0 611.995 611.996;"
	 xml:space="preserve">
<g>
	<g>
		<path d="M604.794,285.587c-0.791-0.665-5.031-4.028-11.854-9.435c-41.353-32.77-167.189-132.492-209.288-173.452
			c-5.737-5.56-10.608-8.152-15.336-8.152c-3.169,0-6.041,1.201-8.303,3.469c-3.943,3.954-5.769,10.936-5.744,21.954l0.021,10.718
			c0.021,10.864,0.058,29.048,0.089,51.667c-37.566-0.317-96.39-0.778-150.939-1.201c-51.821-0.406-99.784-0.781-122.003-0.972
			l-1.733-0.003c-32.975,0-77.059,5.393-79.218,52.019c-0.389,8.647-0.679,134.319-0.328,144.646
			c0.935,22.551,10.322,52.592,80.702,53.133c45.739,0.365,201.105,1.529,273.931,2.055c0.038,22.301,0.086,40.324,0.116,51.295
			l0.027,11.297c0.096,6.83,0.324,22.82,12.222,22.824c4.114,0,8.33-2.248,14.091-7.512
			c33.653-30.631,118.548-104.207,174.725-152.891c27.93-24.203,46.38-40.195,49.105-42.727c4.52-4.064,6.976-9.206,6.917-14.476
			C611.947,294.606,609.409,289.568,604.794,285.587z M595.881,304.242c-2.634,2.446-23.024,20.115-48.836,42.488
			c-56.225,48.73-141.197,122.369-174.98,153.123c-1.207,1.102-2.176,1.902-2.939,2.486c-0.253-1.607-0.484-4.076-0.539-7.812
			l-0.027-11.234c-0.034-12.055-0.089-32.627-0.13-58.043c-0.007-3.746-3.029-6.785-6.774-6.812
			c-69.487-0.498-233.477-1.727-280.685-2.102c-34.036-0.262-65.734-5.293-67.174-40.004c-0.345-10.203-0.062-134.945,0.324-143.513
			c0.938-20.255,9.531-38.995,65.588-38.995l1.63,0.003c22.206,0.194,70.172,0.57,122,0.972
			c58.005,0.45,120.851,0.941,157.816,1.259c1.756-0.01,3.571-0.699,4.864-1.982c1.292-1.283,2.016-3.029,2.016-4.851
			c-0.031-25.822-0.071-46.619-0.096-58.567l-0.021-10.708c-0.017-6.686,0.771-9.923,1.307-11.345
			c0.935,0.498,2.545,1.573,4.926,3.882c42.59,41.434,168.836,141.483,210.321,174.356c6.645,5.267,10.779,8.538,11.485,9.131
			c1.088,0.938,2.391,2.398,2.408,4.004C598.374,301.278,597.521,302.765,595.881,304.242z"/>
		<path d="M70.129,214.129c-0.74-0.194-18.25-4.718-30.874,4.983c-7.842,6.024-11.816,15.746-11.816,28.898v122.797
			c0,3.768,3.056,6.822,6.822,6.822c3.766,0,6.822-3.055,6.822-6.822V248.011c0-8.661,2.166-14.729,6.44-18.044
			c7.18-5.567,18.791-2.726,19.112-2.647c3.623,0.958,7.358-1.204,8.327-4.837C75.934,218.84,73.768,215.098,70.129,214.129z"/>
		<path d="M386.732,414.013c-3.766,0-6.822,3.057-6.822,6.822v38.658c0,3.766,3.057,6.82,6.822,6.82s6.822-3.055,6.822-6.82v-38.658
			C393.555,417.07,390.502,414.013,386.732,414.013z"/>
	</g>
</g>
<g>
</g>
<g>
</g>
<g>
</g>
<g>
</g>
<g>
</g>
<g>
</g>
<g>
</g>
<g>
</g>
<g>
</g>
<g>
</g>
<g>
</g>
<g>
</g>
<g>
</g>
<g>
</g>
<g>
</g>
</svg>
